<svg width="24" height="24" viewBox="0 0 24 24" fill="none" xmlns="http://www.w3.org/2000/svg">
<path d="M13.4062 10.6055H19.5586C19.6021 10.6055 19.6438 10.6228 19.6746 10.6535C19.7054 10.6843 19.7227 10.726 19.7227 10.7695V19.0312C19.7227 19.7741 19.4276 20.4864 18.9023 21.0117C18.3771 21.5369 17.6647 21.832 16.9219 21.832H7.07812C6.33531 21.832 5.62292 21.5369 5.09767 21.0117C4.57243 20.4864 4.27734 19.7741 4.27734 19.0312V4.96875C4.27734 4.22594 4.57243 3.51355 5.09767 2.9883C5.62292 2.46305 6.33531 2.16797 7.07812 2.16797H11.1211C11.1646 2.16797 11.2063 2.18525 11.2371 2.21602C11.2679 2.24679 11.2852 2.28852 11.2852 2.33203V8.48437C11.2852 9.04692 11.5086 9.58643 11.9064 9.98421C12.3042 10.382 12.8437 10.6055 13.4062 10.6055ZM8.48437 17.6367H15.5156C15.7052 17.6367 15.887 17.5614 16.0211 17.4273C16.1552 17.2933 16.2305 17.1115 16.2305 16.9219C16.2305 16.7323 16.1552 16.5505 16.0211 16.4164C15.887 16.2823 15.7052 16.207 15.5156 16.207H8.48437C8.29479 16.207 8.11296 16.2823 7.9789 16.4164C7.84484 16.5505 7.76953 16.7323 7.76953 16.9219C7.76953 17.1115 7.84484 17.2933 7.9789 17.4273C8.11296 17.5614 8.29479 17.6367 8.48437 17.6367ZM8.48437 14.1211H15.5156C15.7052 14.1211 15.887 14.0458 16.0211 13.9117C16.1552 13.7777 16.2305 13.5958 16.2305 13.4062C16.2305 13.2167 16.1552 13.0348 16.0211 12.9008C15.887 12.7667 15.7052 12.6914 15.5156 12.6914H8.48437C8.29479 12.6914 8.11296 12.7667 7.9789 12.9008C7.84484 13.0348 7.76953 13.2167 7.76953 13.4062C7.76953 13.5958 7.84484 13.7777 7.9789 13.9117C8.11296 14.0458 8.29479 14.1211 8.48437 14.1211Z" fill="#8C394C" stroke="#8C394C" stroke-width="0.0234375"/>
<path d="M12.8447 2.72723L19.1644 9.04696L12.8447 2.72723ZM12.8447 2.72723C12.8447 2.72722 12.8447 2.72722 12.8447 2.72722M12.8447 2.72723L12.8447 2.72722M12.8447 2.72722C12.8341 2.71663 12.8205 2.70944 12.8058 2.70652C12.7911 2.70361 12.7758 2.70512 12.7619 2.71086C12.748 2.7166 12.7362 2.72631 12.7278 2.73878C12.7194 2.75124 12.7149 2.7659 12.7148 2.78091V8.48542C12.7148 8.6688 12.7877 8.84466 12.9174 8.97432C13.047 9.10398 13.2229 9.17683 13.4063 9.17683H19.1107C19.1258 9.17677 19.1404 9.17226 19.1529 9.16389C19.1654 9.15552 19.1751 9.14364 19.1808 9.12976C19.1866 9.11588 19.1881 9.10062 19.1851 9.08589C19.1822 9.07116 19.175 9.05763 19.1645 9.04698L12.8447 2.72722Z" fill="#8C394C" stroke="#8C394C" stroke-width="0.0234375"/>
</svg>
